HIERARCHY
ROOT pelvis
{
	OFFSET 0.003123 -0.351407 0.012037
	CHANNELS 6 Xposition Yposition Zposition Zrotation Yrotation Xrotation 
	JOINT left_hip
	{
		OFFSET 0.058189 -0.092763 -0.026001
		CHANNELS 3 Zrotation Yrotation Xrotation
		JOINT left_knee
		{
			OFFSET 0.054695 -0.378753 -0.009396
			CHANNELS 3 Zrotation Yrotation Xrotation
			JOINT left_ankle
			{
				OFFSET -0.043453 -0.403059 -0.031876
				CHANNELS 3 Zrotation Yrotation Xrotation
				JOINT left_foot
				{
					OFFSET 0.047257 -0.057997 0.118216
					CHANNELS 3 Zrotation Yrotation Xrotation
					End Site
					{
						OFFSET 0.000000 0.000000 0.000000
					}
				}
			}
		}
	}
	JOINT right_hip
	{
		OFFSET -0.063267 -0.103908 -0.021250
		CHANNELS 3 Zrotation Yrotation Xrotation
		JOINT right_knee
		{
			OFFSET -0.044210 -0.362380 -0.016824
			CHANNELS 3 Zrotation Yrotation Xrotation
			JOINT right_ankle
			{
				OFFSET 0.015417 -0.410728 -0.020192
				CHANNELS 3 Zrotation Yrotation Xrotation
				JOINT right_foot
				{
					OFFSET -0.038812 -0.058328 0.119049
					CHANNELS 3 Zrotation Yrotation Xrotation
					End Site
					{
						OFFSET 0.000000 0.000000 0.000000
					}
				}
			}
		}
	}
	JOINT spine_1
	{
		OFFSET -0.002763 0.109891 -0.027618
		CHANNELS 3 Zrotation Yrotation Xrotation
		JOINT spine_2
		{
			OFFSET 0.009448 0.131853 -0.005940
			CHANNELS 3 Zrotation Yrotation Xrotation
			JOINT spine_3
			{
				OFFSET -0.011330 0.052235 0.028447
				CHANNELS 3 Zrotation Yrotation Xrotation
				JOINT neck
				{
					OFFSET -0.012164 0.165167 -0.031615
					CHANNELS 3 Zrotation Yrotation Xrotation
					JOINT head
					{
						OFFSET 0.024783 0.160452 0.020737
						CHANNELS 3 Zrotation Yrotation Xrotation
						End Site
						{
							OFFSET 0.000000 0.000000 0.000000
						}
					}
				}
				JOINT left_collar
				{
					OFFSET 0.046364 0.084944 -0.007220
					CHANNELS 3 Zrotation Yrotation Xrotation
					JOINT left_shoulder
					{
						OFFSET 0.119239 0.057728 -0.015461
						CHANNELS 3 Zrotation Yrotation Xrotation
						JOINT left_elbow
						{
							OFFSET 0.254123 -0.072151 -0.042459
							CHANNELS 3 Zrotation Yrotation Xrotation
							JOINT left_wrist
							{
								OFFSET 0.251987 0.023221 -0.002472
								CHANNELS 3 Zrotation Yrotation Xrotation
								JOINT left_index_1
								{
									OFFSET 0.101902 -0.008688 0.019351
									CHANNELS 3 Zrotation Yrotation Xrotation
									JOINT left_index_2
									{
										OFFSET 0.030149 -0.011154 0.001151
										CHANNELS 3 Zrotation Yrotation Xrotation
										JOINT left_index_3
										{
											OFFSET 0.006504 -0.021577 -0.002433
											CHANNELS 3 Zrotation Yrotation Xrotation
											End Site
											{
												OFFSET 0.000000 0.000000 0.000000
											}
										}
									}
								}
								JOINT left_middle_1
								{
									OFFSET 0.109398 -0.006328 -0.003981
									CHANNELS 3 Zrotation Yrotation Xrotation
									JOINT left_middle_2
									{
										OFFSET 0.026472 -0.015218 -0.004641
										CHANNELS 3 Zrotation Yrotation Xrotation
										JOINT left_middle_3
										{
											OFFSET 0.005022 -0.023347 -0.001911
											CHANNELS 3 Zrotation Yrotation Xrotation
											End Site
											{
												OFFSET 0.000000 0.000000 0.000000
											}
										}
									}
								}
								JOINT left_pinky_1
								{
									OFFSET 0.084047 -0.014539 -0.043750
									CHANNELS 3 Zrotation Yrotation Xrotation
									JOINT left_pinky_2
									{
										OFFSET 0.012124 -0.014448 -0.005375
										CHANNELS 3 Zrotation Yrotation Xrotation
										JOINT left_pinky_3
										{
											OFFSET 0.003798 -0.018853 0.000167
											CHANNELS 3 Zrotation Yrotation Xrotation
											End Site
											{
												OFFSET 0.000000 0.000000 0.000000
											}
										}
									}
								}
								JOINT left_ring_1
								{
									OFFSET 0.097444 -0.009268 -0.027345
									CHANNELS 3 Zrotation Yrotation Xrotation
									JOINT left_ring_2
									{
										OFFSET 0.023561 -0.016057 -0.001895
										CHANNELS 3 Zrotation Yrotation Xrotation
										JOINT left_ring_3
										{
											OFFSET 0.004257 -0.023548 0.000814
											CHANNELS 3 Zrotation Yrotation Xrotation
											End Site
											{
												OFFSET 0.000000 0.000000 0.000000
											}
										}
									}
								}
								JOINT left_thumb_1
								{
									OFFSET 0.040636 -0.017977 0.025611
									CHANNELS 3 Zrotation Yrotation Xrotation
									JOINT left_thumb_2
									{
										OFFSET 0.021637 -0.017639 0.011623
										CHANNELS 3 Zrotation Yrotation Xrotation
										JOINT left_thumb_3
										{
											OFFSET 0.024002 -0.008356 0.006548
											CHANNELS 3 Zrotation Yrotation Xrotation
											End Site
											{
												OFFSET 0.000000 0.000000 0.000000
											}
										}
									}
								}
							}
						}
					}
				}
				JOINT right_collar
				{
					OFFSET -0.047695 0.084339 -0.013400
					CHANNELS 3 Zrotation Yrotation Xrotation
					JOINT right_shoulder
					{
						OFFSET -0.102578 0.053524 -0.012669
						CHANNELS 3 Zrotation Yrotation Xrotation
						JOINT right_elbow
						{
							OFFSET -0.271150 -0.036492 -0.026467
							CHANNELS 3 Zrotation Yrotation Xrotation
							JOINT right_wrist
							{
								OFFSET -0.249267 -0.004533 -0.015325
								CHANNELS 3 Zrotation Yrotation Xrotation
								JOINT right_index_1
								{
									OFFSET -0.099881 -0.011783 0.019600
									CHANNELS 3 Zrotation Yrotation Xrotation
									JOINT right_index_2
									{
										OFFSET -0.030148 -0.011154 0.001151
										CHANNELS 3 Zrotation Yrotation Xrotation
										JOINT right_index_3
										{
											OFFSET -0.006505 -0.021577 -0.002432
											CHANNELS 3 Zrotation Yrotation Xrotation
											End Site
											{
												OFFSET 0.000000 0.000000 0.000000
											}
										}
									}
								}
								JOINT right_middle_1
								{
									OFFSET -0.107376 -0.009422 -0.003734
									CHANNELS 3 Zrotation Yrotation Xrotation
									JOINT right_middle_2
									{
										OFFSET -0.026472 -0.015218 -0.004641
										CHANNELS 3 Zrotation Yrotation Xrotation
										JOINT right_middle_3
										{
											OFFSET -0.005022 -0.023347 -0.001911
											CHANNELS 3 Zrotation Yrotation Xrotation
											End Site
											{
												OFFSET 0.000000 0.000000 0.000000
											}
										}
									}
								}
								JOINT right_pinky_1
								{
									OFFSET -0.082027 -0.017634 -0.043503
									CHANNELS 3 Zrotation Yrotation Xrotation
									JOINT right_pinky_2
									{
										OFFSET -0.012123 -0.014448 -0.005374
										CHANNELS 3 Zrotation Yrotation Xrotation
										JOINT right_pinky_3
										{
											OFFSET -0.003798 -0.018852 0.000167
											CHANNELS 3 Zrotation Yrotation Xrotation
											End Site
											{
												OFFSET 0.000000 0.000000 0.000000
											}
										}
									}
								}
								JOINT right_ring_1
								{
									OFFSET -0.095423 -0.012362 -0.027099
									CHANNELS 3 Zrotation Yrotation Xrotation
									JOINT right_ring_2
									{
										OFFSET -0.023561 -0.016057 -0.001895
										CHANNELS 3 Zrotation Yrotation Xrotation
										JOINT right_ring_3
										{
											OFFSET -0.004257 -0.023548 0.000816
											CHANNELS 3 Zrotation Yrotation Xrotation
											End Site
											{
												OFFSET 0.000000 0.000000 0.000000
											}
										}
									}
								}
								JOINT right_thumb_1
								{
									OFFSET -0.038613 -0.021074 0.025861
									CHANNELS 3 Zrotation Yrotation Xrotation
									JOINT right_thumb_2
									{
										OFFSET -0.021636 -0.017639 0.011623
										CHANNELS 3 Zrotation Yrotation Xrotation
										JOINT right_thumb_3
										{
											OFFSET -0.024004 -0.008353 0.006547
											CHANNELS 3 Zrotation Yrotation Xrotation
											End Site
											{
												OFFSET 0.000000 0.000000 0.000000
											}
										}
									}
								}
							}
						}
					}
				}
			}
		}
	}
}
MOTION
Frames: 7
Frame Time: 0.050000
0.186588 0.944324 1.282196 1.203279 -32.916005 -13.298173 -3.674861 1.447656 7.762930 4.776410 -1.823580 15.093544 -0.892787 -0.287718 3.064943 0.000000 0.000000 0.000000 -3.999284 0.346616 12.545225 5.632430 0.164861 7.643260 4.629288 -6.434377 17.169018 0.000000 0.000000 0.000000 2.607565 -0.030686 0.362278 -9.839508 -1.433594 -16.518538 6.240861 -7.268864 31.997661 -2.466094 0.519047 -2.827493 0.000000 0.000000 0.000000 0.851328 2.156951 -1.305250 -56.430911 -12.984342 -0.260552 -34.616093 -14.590484 6.525245 -12.737130 -8.431635 15.270938 -33.419925 -2.925734 -1.509675 -86.936231 0.507595 -7.958541 0.000000 0.000000 0.000000 -107.242564 31.650940 -27.005483 10.616807 -26.210960 -103.347359 0.000000 0.000000 0.000000 -120.823523 3.268587 -32.647127 43.891606 7.551227 -46.820331 0.000000 0.000000 0.000000 -109.579259 -21.722842 -1.994553 100.678741 32.157775 -40.397055 0.000000 0.000000 0.000000 -15.106226 -13.916655 -4.629809 77.529465 44.980209 32.831692 0.000000 0.000000 0.000000 -17.180542 10.164281 9.010943 -45.431063 64.046668 -56.136481 -107.776709 33.353621 -48.287211 -4.387506 1.349386 -19.244061 4.067369 -8.207100 2.408529 -21.889665 5.508377 -33.264988 0.000000 0.000000 0.000000 -0.896107 16.645232 -9.074567 -12.090381 4.698946 -28.028247 0.000000 0.000000 0.000000 -36.903442 24.420200 -43.717240 -12.299954 -0.634069 2.483541 0.000000 0.000000 0.000000 -14.124169 23.890044 -19.878277 -11.920654 0.559010 -12.408941 0.000000 0.000000 0.000000 -39.356791 -25.068710 6.927355 26.799989 13.426981 4.687854 0.000000 0.000000 0.000000 
0.181877 0.951738 1.266357 0.503208 -29.448639 -13.801582 -0.977238 1.125213 6.628579 3.394593 -1.665956 18.384701 -4.250837 -6.408145 4.063943 0.000000 0.000000 0.000000 -3.198775 0.119942 17.507651 5.830306 0.073128 4.316563 7.098970 3.594247 9.037731 0.000000 0.000000 0.000000 1.166668 0.707529 -4.850515 -9.724570 -0.459587 -14.003211 6.293761 -7.267760 35.947688 1.138203 -0.122429 -3.395129 0.000000 0.000000 0.000000 2.807563 -1.210763 0.067170 -54.710401 -11.514178 -1.422438 -38.583675 -18.024900 9.090116 -4.494868 -7.155387 12.668641 -93.228409 -28.628694 13.744581 78.783794 -39.628569 82.584248 0.000000 0.000000 0.000000 -105.942448 0.264397 -16.116287 41.285033 10.720976 -98.344611 0.000000 0.000000 0.000000 -124.540931 10.574927 -33.517761 34.753346 7.239706 -65.262987 0.000000 0.000000 0.000000 -108.905969 -26.043418 2.304439 85.574229 33.973208 -52.323294 0.000000 0.000000 0.000000 -18.223255 -23.902693 -7.489952 72.062014 40.191652 29.236604 0.000000 0.000000 0.000000 -13.961433 12.247461 8.824652 -32.566583 60.694510 -40.853666 -110.255977 35.280971 -54.403861 -10.246402 7.467201 -24.018842 7.169303 -3.311001 0.940399 2.780093 10.620334 -33.616615 0.000000 0.000000 0.000000 2.796942 16.929148 -8.665072 4.739272 11.704575 -35.151398 0.000000 0.000000 0.000000 -28.044187 25.578714 -43.944709 -2.229443 0.178579 -0.835886 0.000000 0.000000 0.000000 -7.895422 25.415155 -19.295979 2.216062 5.493767 -17.097401 0.000000 0.000000 0.000000 -30.492666 -27.921936 10.192609 18.034926 24.118204 -2.237038 0.000000 0.000000 0.000000 
0.186588 0.944647 1.234680 0.396083 -24.437010 -15.127384 -0.661738 1.363138 7.953578 2.714775 -1.622452 15.198891 -5.265597 -8.846908 3.225906 0.000000 0.000000 0.000000 -2.525721 -0.312561 19.247687 5.510844 0.018038 2.420362 6.556594 7.173320 4.914093 0.000000 0.000000 0.000000 -1.905853 -0.668979 5.450117 -10.726109 0.285215 -13.620219 9.525263 -7.019675 29.683413 0.684017 0.274878 -4.943649 0.000000 0.000000 0.000000 4.092473 0.250856 -0.812809 -57.516436 -9.951179 -2.143993 -36.920057 -29.296860 14.427079 -0.753679 -0.860238 13.733954 -49.563777 -15.842913 0.492760 -43.155251 21.700163 13.250898 0.000000 0.000000 0.000000 -80.924402 -5.469887 -12.361172 46.860476 1.747257 -49.953438 0.000000 0.000000 0.000000 -112.183025 38.800773 -38.827008 5.725306 -12.399350 -73.486432 0.000000 0.000000 0.000000 -84.647725 -12.391007 -5.593561 47.039067 7.121267 -31.044803 0.000000 0.000000 0.000000 -6.420832 -1.200334 1.924446 39.664217 20.094930 -0.413835 0.000000 0.000000 0.000000 -14.540004 9.109470 7.468151 -24.676799 59.151481 -32.436395 -119.846323 33.854073 -61.013828 -6.066764 11.029441 -22.069920 5.698059 -0.917713 0.039676 63.342034 7.701243 -7.536451 0.000000 0.000000 0.000000 19.822375 21.349625 -9.072988 42.893517 19.106117 -24.794404 0.000000 0.000000 0.000000 -13.368077 31.880505 -53.035101 23.141978 -3.938267 7.631339 0.000000 0.000000 0.000000 7.700621 34.091213 -20.965294 26.927213 11.946131 -13.287540 0.000000 0.000000 0.000000 -33.060421 -31.088116 7.814657 21.448506 31.348443 -9.597949 0.000000 0.000000 0.000000 
0.195068 0.939489 1.218842 -2.282558 -21.223690 -10.860132 1.546445 1.186142 7.518609 3.578173 -1.315989 7.491317 -4.844973 -11.037865 -1.032207 0.000000 0.000000 0.000000 0.305371 -1.230461 17.387269 5.589595 0.063941 -1.488560 5.252143 6.769159 3.234311 0.000000 0.000000 0.000000 1.786977 -0.557372 5.018467 -9.692271 -0.440211 -15.062974 8.038936 -5.324500 29.699742 3.484743 -0.283002 -3.920212 0.000000 0.000000 0.000000 2.853422 0.198183 -0.485446 -60.034810 -8.956776 -3.539715 -31.963088 -32.745368 14.334006 0.290920 -3.427478 13.291049 -19.559770 3.714804 1.265889 -42.966933 9.510916 1.237665 0.000000 0.000000 0.000000 -46.309243 2.207583 -7.808041 -31.413217 -11.924225 -31.944410 0.000000 0.000000 0.000000 -37.174221 -23.298846 -20.861090 -69.995920 5.847594 -54.282448 0.000000 0.000000 0.000000 -32.602232 -16.777659 -7.328978 -51.241687 -7.247318 -13.908099 0.000000 0.000000 0.000000 20.534605 15.595213 8.781359 -9.227271 -6.535531 1.474136 0.000000 0.000000 0.000000 -11.927758 7.907255 6.110976 -22.306849 53.761823 -25.079018 -125.883570 35.387591 -69.960464 -9.617041 10.070542 -20.792509 35.202161 -15.937998 -3.759233 83.043192 2.393253 -8.287833 0.000000 0.000000 0.000000 77.640511 34.234526 1.208974 29.564260 8.280312 -23.353721 0.000000 0.000000 0.000000 23.719001 67.178962 -76.999767 -18.219883 -10.873333 59.206329 0.000000 0.000000 0.000000 73.186235 48.436427 1.537218 -17.269222 -1.763691 -14.064562 0.000000 0.000000 0.000000 -31.526664 -31.632534 4.350673 48.391791 -1.330713 3.695785 0.000000 0.000000 0.000000 
0.193184 0.931753 1.213562 -2.930285 -18.045743 -10.762218 3.420287 1.131181 7.784539 2.420742 -0.929839 5.618355 -5.530379 -14.327006 -2.944438 0.000000 0.000000 0.000000 0.037958 -1.292483 16.050042 8.636012 0.032303 -0.538743 3.346742 2.921299 3.764873 0.000000 0.000000 0.000000 1.882122 -0.764283 7.542800 -8.129427 -1.399164 -16.936550 7.926870 -6.025194 29.845556 1.951758 0.146945 -4.962013 0.000000 0.000000 0.000000 1.752070 0.823984 -0.638581 -61.536278 -8.240544 -4.239410 -29.474606 -33.264580 13.590629 -0.827628 -5.142119 10.492005 -16.921393 2.477596 0.995279 -6.334270 3.441669 6.347662 0.000000 0.000000 0.000000 -18.737021 -5.373215 -5.279139 -34.921841 3.317026 -1.896662 0.000000 0.000000 0.000000 18.714433 -19.039824 -18.690487 -48.401590 -17.049138 -26.824122 0.000000 0.000000 0.000000 -10.873562 -13.409316 -7.967436 -54.419167 -3.771441 -4.571448 0.000000 0.000000 0.000000 15.358757 19.532634 14.784344 -7.155741 -11.651359 -0.923534 0.000000 0.000000 0.000000 -9.684970 7.480150 5.462293 -18.475233 51.062776 -20.763529 -131.632289 34.879820 -75.951372 -11.655321 5.735643 -23.438908 11.238358 5.298010 0.190995 57.219057 4.892151 -3.548071 0.000000 0.000000 0.000000 20.543638 25.969246 -9.005238 44.439428 15.602786 -19.061928 0.000000 0.000000 0.000000 -14.506496 29.399920 -55.495984 38.807102 5.953872 -4.308784 0.000000 0.000000 0.000000 15.432601 30.357677 -15.931402 24.497986 19.963589 -25.140896 0.000000 0.000000 0.000000 -32.198557 -29.724154 8.978409 20.914544 16.327919 -1.220950 0.000000 0.000000 0.000000 
0.196011 0.932720 1.208282 -2.122282 -19.847448 -11.735485 2.046872 1.547285 9.873812 3.241849 -0.769098 2.980293 -5.309997 -12.897714 -1.889767 0.000000 0.000000 0.000000 -0.400757 -1.071722 15.031366 7.501565 -0.034158 1.829318 3.539240 4.119746 2.731500 0.000000 0.000000 0.000000 1.212675 -1.014796 10.480294 -9.515860 -0.390704 -14.967248 8.598614 -5.262550 26.229638 1.764517 0.075745 -4.125135 0.000000 0.000000 0.000000 0.130370 2.294528 -1.241768 -59.372674 -9.025670 -4.084074 -28.355544 -31.752892 12.457626 -1.797876 -3.986777 10.301198 -18.392571 0.315330 0.518456 -21.641674 8.699116 9.057722 0.000000 0.000000 0.000000 -29.062797 -3.340704 -5.965798 -21.169044 0.859358 -4.000782 0.000000 0.000000 0.000000 1.324252 -20.615163 -22.691524 -39.681660 -8.137280 -16.421808 0.000000 0.000000 0.000000 -21.994526 -13.083755 -7.371499 -33.491506 -3.103946 -6.368585 0.000000 0.000000 0.000000 8.548642 23.670492 21.708941 16.150196 -17.266826 -12.956482 0.000000 0.000000 0.000000 -6.533285 7.358215 4.951929 -17.667450 53.103277 -21.378102 -135.739736 35.359027 -81.444033 -14.125581 3.484872 -24.787492 16.439177 -4.031264 0.994471 42.356153 9.218452 -12.959051 0.000000 0.000000 0.000000 26.369321 19.425741 -6.233385 35.087923 11.040010 -16.135040 0.000000 0.000000 0.000000 1.445693 27.466566 -39.278970 29.827303 3.005759 -4.082339 0.000000 0.000000 0.000000 19.679832 27.951188 -12.362485 33.066544 10.486023 -7.956877 0.000000 0.000000 0.000000 -28.370092 -29.384959 9.586609 23.940696 16.816114 0.408201 0.000000 0.000000 0.000000 
0.196011 0.931431 1.213562 -0.935190 -20.033607 -10.561470 0.573411 1.044821 6.561196 2.969214 -1.109889 6.504210 -4.632598 -11.919283 -2.663392 0.000000 0.000000 0.000000 -0.619273 -0.934404 13.458980 5.589750 -0.026886 2.058774 2.703678 4.274236 0.931094 0.000000 0.000000 0.000000 -1.238889 -0.955803 11.631776 -8.807912 -1.062756 -16.277217 8.197072 -3.681141 26.916863 1.938641 0.540136 -7.203875 0.000000 0.000000 0.000000 -0.786655 2.302737 -1.189460 -58.929149 -6.301511 -5.271866 -26.621972 -35.390588 13.428496 -3.158730 -3.918842 10.920785 -22.434298 5.389360 1.412441 -10.716393 4.238186 5.481022 0.000000 0.000000 0.000000 -22.326904 -1.914325 -4.664129 -28.026870 4.136405 1.067106 0.000000 0.000000 0.000000 11.418205 -17.274075 -16.886546 -58.789055 -8.942633 -11.189141 0.000000 0.000000 0.000000 -15.402137 -10.188345 -6.323944 -44.713301 -0.604182 -0.845437 0.000000 0.000000 0.000000 7.885103 21.608338 19.653492 5.571696 -10.966894 -5.626308 0.000000 0.000000 0.000000 -2.061165 6.567719 3.735273 -16.055867 49.114949 -17.795773 -137.777214 33.474942 -80.134500 -12.029671 2.653159 -31.360984 12.319272 1.076194 0.538424 47.579690 7.013295 -2.411434 0.000000 0.000000 0.000000 24.007304 15.620361 -5.438464 35.338318 9.719405 -10.101929 0.000000 0.000000 0.000000 0.597597 21.812426 -31.340167 25.443536 0.440169 -1.048479 0.000000 0.000000 0.000000 16.864627 21.095619 -9.817641 24.742012 17.243911 -19.171962 0.000000 0.000000 0.000000 -34.979354 -28.544916 6.961427 27.639396 15.901659 2.588994 0.000000 0.000000 0.000000 
